<svg width="20" height="20" viewBox="0 0 20 20" fill="none" xmlns="http://www.w3.org/2000/svg">
<path d="M7.04525 3.46435C7.64605 1.70605 10.0754 1.6528 10.7877 3.30459L10.848 3.46535L11.6588 5.83654C11.8446 6.38034 12.1448 6.87796 12.5393 7.29585C12.9338 7.71373 13.4133 8.04216 13.9454 8.25897L14.1635 8.34035L16.5345 9.15018C18.2927 9.75101 18.346 12.1805 16.6953 12.8928L16.5345 12.9531L14.1635 13.7639C13.6195 13.9496 13.1217 14.2499 12.7037 14.6444C12.2856 15.0389 11.9571 15.5184 11.7401 16.0507L11.6588 16.2678L10.849 18.64C10.2482 20.3983 7.81886 20.4515 7.10754 18.8007L7.04525 18.64L6.23547 16.2688C6.04978 15.7248 5.74957 15.227 5.3551 14.8089C4.96063 14.3908 4.48108 14.0622 3.9488 13.8453L3.73179 13.7639L1.36073 12.9541C-0.398481 12.3533 -0.45173 9.92383 1.19998 9.21247L1.36073 9.15018L3.73179 8.34035C4.27556 8.15453 4.77316 7.85426 5.19102 7.45977C5.60888 7.06528 5.93729 6.58577 6.15409 6.05356L6.23547 5.83654L7.04525 3.46435ZM16.9846 1.81544e-07C17.1726 -2.37091e-07 17.3568 0.0527271 17.5162 0.15219C17.6757 0.251652 17.8041 0.393861 17.8868 0.562655L17.9351 0.68021L18.2867 1.71107L19.3185 2.06273C19.5069 2.12673 19.672 2.24521 19.7929 2.40315C19.9139 2.5611 19.9853 2.7514 19.998 2.94994C20.0106 3.14848 19.9641 3.34632 19.8643 3.51839C19.7644 3.69046 19.6157 3.82901 19.4371 3.91648L19.3185 3.96471L18.2877 4.31637L17.9361 5.34824C17.8719 5.53655 17.7534 5.7016 17.5954 5.82247C17.4374 5.94333 17.2471 6.01457 17.0486 6.02716C16.85 6.03975 16.6522 5.99312 16.4802 5.89319C16.3082 5.79325 16.1698 5.6445 16.0824 5.46579L16.0342 5.34824L15.6825 4.31737L14.6507 3.96571C14.4624 3.90172 14.2972 3.78324 14.1763 3.62529C14.0553 3.46735 13.984 3.27705 13.9713 3.07851C13.9586 2.87997 14.0051 2.68213 14.105 2.51006C14.2048 2.33799 14.3535 2.19944 14.5322 2.11197L14.6507 2.06374L15.6815 1.71208L16.0332 0.68021C16.1009 0.481699 16.2291 0.309368 16.3997 0.187383C16.5703 0.0653976 16.7749 -0.000125875 16.9846 1.81544e-07Z" fill="#4B9CD3"/>
</svg>
