<svg width="88" height="27" viewBox="0 0 88 27" fill="none" xmlns="http://www.w3.org/2000/svg">
<path d="M7.36781 0.16L7.48181 0.0459989H8.05181C10.6611 0.172665 13.8911 0.185332 17.7418 0.0839984C18.6538 0.0586654 19.1605 0.134665 19.2618 0.311998C19.2871 0.387998 19.2491 0.679332 19.1478 1.186C18.9958 1.69267 18.8945 1.984 18.8438 2.06L18.7298 2.174H17.2098C15.5631 2.19933 14.6258 2.31333 14.3978 2.516C14.3218 2.56666 13.4098 6.11333 11.6618 13.156C9.91381 20.148 9.03981 23.682 9.03981 23.758C9.03981 23.8087 9.11581 23.834 9.26781 23.834H13.2958C14.6385 23.682 15.8418 23.226 16.9058 22.466C17.4885 22.0607 17.9571 21.6047 18.3118 21.098C19.0971 20.0593 19.8445 18.4887 20.5538 16.386C20.8071 15.7273 20.9718 15.3727 21.0478 15.322C21.1238 15.2713 21.4151 15.246 21.9218 15.246C22.4285 15.246 22.7071 15.2713 22.7578 15.322C22.9098 15.3727 22.9858 15.4867 22.9858 15.664L19.4898 25.81C19.4391 25.9113 19.0718 25.962 18.3878 25.962C17.6531 25.9873 14.9298 26 10.2178 26H1.21181L1.05981 25.886C0.983813 25.7593 0.945813 25.658 0.945813 25.582C0.945813 25.1767 1.07248 24.6827 1.32581 24.1C1.62981 23.948 2.11115 23.872 2.76981 23.872C3.90981 23.8467 4.55581 23.796 4.70781 23.72C4.83448 23.644 4.93581 23.492 5.01181 23.264C5.18915 22.7573 6.06315 19.3373 7.63381 13.004C9.38181 6.012 10.2558 2.49067 10.2558 2.44C10.2558 2.364 10.2305 2.326 10.1798 2.326C10.0278 2.27533 9.43248 2.22467 8.39381 2.174C7.50715 2.174 7.01315 2.08533 6.91181 1.908C6.88648 1.832 6.92448 1.54067 7.02581 1.034C7.15248 0.552665 7.26648 0.261332 7.36781 0.16ZM30.128 9.28C30.3054 9.22933 30.584 9.204 30.964 9.204C31.5467 9.22933 32.0534 9.356 32.484 9.584C32.8134 9.76133 33.0667 9.95133 33.244 10.154C33.4467 10.3313 33.6367 10.5847 33.814 10.914C34.042 11.3953 34.1434 11.902 34.118 12.434C34.118 12.9407 33.9534 13.6373 33.624 14.524C33.5987 14.6507 33.548 14.8027 33.472 14.98C32.2307 18.4253 31.61 20.7813 31.61 22.048C31.61 22.1493 31.61 22.238 31.61 22.314C31.6354 23.1753 31.838 23.8087 32.218 24.214C32.4967 24.4673 32.8767 24.594 33.358 24.594C33.8647 24.594 34.308 24.4927 34.688 24.29C35.3467 23.9607 35.9167 23.4287 36.398 22.694L36.626 22.314L38.032 16.69C39.02 12.7633 39.59 10.686 39.742 10.458C39.7674 10.4073 39.8307 10.3313 39.932 10.23C40.4894 9.67267 41.1227 9.48267 41.832 9.66C42.44 9.86267 42.7694 10.2553 42.82 10.838C42.82 11.0407 42.364 12.9913 41.452 16.69C40.5654 20.1607 40.0714 22.162 39.97 22.694C39.8687 23.4033 39.856 23.8973 39.932 24.176C39.9827 24.2773 40.046 24.3787 40.122 24.48C40.198 24.5307 40.3247 24.5813 40.502 24.632C40.654 24.632 40.7807 24.594 40.882 24.518C41.414 24.1887 41.9207 23.0233 42.402 21.022C42.554 20.5153 42.6807 20.2493 42.782 20.224C42.858 20.1987 43.1367 20.186 43.618 20.186C44.1754 20.186 44.492 20.2113 44.568 20.262C44.6187 20.3127 44.644 20.414 44.644 20.566C44.644 20.9207 44.4414 21.6427 44.036 22.732C43.732 23.568 43.4154 24.214 43.086 24.67C42.3767 25.7593 41.49 26.342 40.426 26.418C39.134 26.4687 38.108 26.0253 37.348 25.088L37.082 24.746C37.0314 24.67 37.006 24.6193 37.006 24.594L36.74 24.86C35.8027 25.7213 34.7767 26.228 33.662 26.38C32.5727 26.5067 31.5847 26.3673 30.698 25.962C29.4567 25.43 28.684 24.4293 28.38 22.96C28.2787 22.3013 28.2787 21.516 28.38 20.604C28.4054 20.528 28.418 20.4647 28.418 20.414C28.6207 19.1473 29.216 17.2093 30.204 14.6C30.66 13.2573 30.9134 12.396 30.964 12.016C31.0907 11.4333 31.0274 11.104 30.774 11.028C30.47 10.9267 30.1154 10.99 29.71 11.218C29.178 11.5473 28.76 12.0667 28.456 12.776C28.2027 13.232 27.924 14.0047 27.62 15.094C27.544 15.246 27.4934 15.3347 27.468 15.36C27.4174 15.4107 27.1134 15.436 26.556 15.436H25.72L25.606 15.322C25.53 15.246 25.492 15.1447 25.492 15.018C25.5427 14.6127 25.758 13.9793 26.138 13.118C26.442 12.4593 26.7587 11.9147 27.088 11.484C27.4174 11.028 27.8354 10.572 28.342 10.116C28.8994 9.68533 29.4947 9.40667 30.128 9.28ZM49.7022 9.28C50.1329 9.15333 50.6775 9.166 51.3362 9.318C52.0455 9.52067 52.6029 9.85 53.0082 10.306C53.2869 10.5847 53.5275 10.9647 53.7302 11.446L53.8062 11.598L54.1102 11.294C55.1235 10.3313 56.2002 9.698 57.3402 9.394C58.8095 9.014 60.1395 9.10267 61.3302 9.66C61.7609 9.86267 62.1409 10.1287 62.4702 10.458C62.6982 10.7113 62.8629 10.9647 62.9642 11.218L63.2302 11.788V11.902L63.6102 11.522C64.7755 10.2807 66.0929 9.546 67.5622 9.318C68.4742 9.14067 69.3102 9.15333 70.0702 9.356C71.0582 9.55867 71.8055 9.98933 72.3122 10.648C72.5909 11.0027 72.8189 11.4713 72.9962 12.054C73.0469 12.282 73.0722 12.7 73.0722 13.308C73.0722 13.9667 73.0595 14.3847 73.0342 14.562C72.7555 16.0567 72.0715 18.2987 70.9822 21.288C70.4502 22.7573 70.1969 23.72 70.2222 24.176C70.2475 24.4547 70.3869 24.6067 70.6402 24.632C71.2482 24.6827 71.8055 24.3533 72.3122 23.644C72.8189 22.9347 73.2242 22.01 73.5282 20.87C73.6549 20.4647 73.7815 20.2493 73.9082 20.224C73.9842 20.1987 74.2502 20.186 74.7062 20.186C75.2635 20.186 75.5675 20.2113 75.6182 20.262C75.7702 20.3633 75.7702 20.6293 75.6182 21.06C75.1369 22.7573 74.3769 24.1 73.3382 25.088C73.0089 25.4173 72.6035 25.7213 72.1222 26C71.0075 26.5573 69.9182 26.5827 68.8542 26.076C68.3982 25.848 68.0562 25.582 67.8282 25.278C67.3469 24.6953 67.1062 24.0113 67.1062 23.226C67.1062 22.7447 67.2962 21.9593 67.6762 20.87C68.9175 17.526 69.6142 15.1573 69.7662 13.764C69.8675 13.156 69.8549 12.586 69.7282 12.054C69.5509 11.5473 69.2975 11.2307 68.9682 11.104C68.7149 10.9773 68.3222 10.952 67.7902 11.028C66.1182 11.2813 64.6742 12.548 63.4582 14.828L63.1542 15.36L61.9382 20.186C61.1275 23.454 60.6842 25.1513 60.6082 25.278C60.2789 25.9367 59.7342 26.3167 58.9742 26.418C58.7715 26.4433 58.5815 26.4307 58.4042 26.38C57.7709 26.2027 57.4289 25.81 57.3782 25.202C57.3782 24.9993 57.7835 23.2513 58.5942 19.958C59.4555 16.5127 59.8989 14.714 59.9242 14.562C60.0509 13.954 60.1142 13.384 60.1142 12.852C60.0889 12.168 59.9242 11.674 59.6202 11.37C59.5442 11.2433 59.4302 11.1547 59.2782 11.104C59.1769 11.0533 58.9615 11.028 58.6322 11.028C58.2015 11.028 57.7962 11.0913 57.4162 11.218C56.7069 11.446 56.0482 11.864 55.4402 12.472C54.8322 13.08 54.2495 13.8907 53.6922 14.904L53.4262 15.36L52.2482 20.186C51.3869 23.5807 50.8802 25.3793 50.7282 25.582C50.7029 25.6327 50.6395 25.7087 50.5382 25.81C50.0062 26.342 49.3855 26.532 48.6762 26.38C48.0429 26.2027 47.7009 25.81 47.6502 25.202C47.6502 24.974 48.1315 22.922 49.0942 19.046C50.0822 15.2207 50.6015 13.1307 50.6522 12.776C50.7282 12.1173 50.7029 11.636 50.5762 11.332C50.4495 11.104 50.2722 10.99 50.0442 10.99C49.8922 10.99 49.7529 11.0407 49.6262 11.142C49.4235 11.2687 49.2082 11.56 48.9802 12.016C48.7269 12.624 48.4102 13.65 48.0302 15.094C47.9542 15.246 47.9035 15.3347 47.8782 15.36C47.8275 15.4107 47.5235 15.436 46.9662 15.436H46.1302L46.0162 15.322C45.9149 15.2207 45.9275 14.9167 46.0542 14.41C46.7129 12.0287 47.5489 10.4833 48.5622 9.774C49.0435 9.47 49.4235 9.30533 49.7022 9.28ZM84.9038 1.148C85.8158 0.919998 86.4745 1.148 86.8798 1.832C87.0065 2.06 87.0825 2.31333 87.1078 2.592C87.1078 2.972 87.0192 3.33933 86.8418 3.694C86.2592 4.50467 85.5245 4.97333 84.6378 5.1C84.3592 5.1 84.0678 5.024 83.7638 4.872C83.5105 4.74533 83.3078 4.51733 83.1558 4.188C83.0798 4.08667 83.0292 3.884 83.0038 3.58C83.0038 3.17467 83.0798 2.82 83.2318 2.516C83.5865 1.80667 84.1438 1.35067 84.9038 1.148ZM81.6358 9.28C81.8132 9.22933 82.0918 9.204 82.4718 9.204C83.0545 9.22933 83.5612 9.356 83.9918 9.584C84.3212 9.76133 84.5745 9.95133 84.7518 10.154C84.9545 10.3313 85.1445 10.5847 85.3218 10.914C85.5498 11.3953 85.6512 11.902 85.6258 12.434C85.6258 12.8647 85.6005 13.1687 85.5498 13.346C85.5245 13.3967 84.9545 14.98 83.8398 18.096C82.7758 20.9333 82.2058 22.504 82.1298 22.808C81.8765 23.644 81.8385 24.2013 82.0158 24.48C82.1425 24.632 82.4085 24.6573 82.8138 24.556C83.8018 24.328 84.5998 23.0993 85.2078 20.87C85.3345 20.4647 85.4612 20.2493 85.5878 20.224C85.6638 20.1987 85.9298 20.186 86.3858 20.186C86.9432 20.186 87.2472 20.2113 87.2978 20.262C87.4498 20.3633 87.4498 20.6293 87.2978 21.06C87.0192 22.048 86.6012 22.9727 86.0438 23.834C85.0305 25.354 83.8778 26.2027 82.5858 26.38C82.1298 26.4813 81.6612 26.456 81.1798 26.304C80.6732 26.152 80.2552 25.962 79.9258 25.734C79.3685 25.278 79.0012 24.632 78.8238 23.796C78.7225 23.3147 78.7478 22.808 78.8998 22.276C78.9505 22.0733 79.5078 20.5153 80.5718 17.602C81.4838 15.17 82.0665 13.574 82.3198 12.814C82.5732 12.0287 82.6112 11.484 82.4338 11.18C82.3578 10.9773 82.0918 10.9393 81.6358 11.066C80.8758 11.2433 80.2045 12.0413 79.6218 13.46C79.2925 14.6 79.1278 15.1447 79.1278 15.094C79.0518 15.246 79.0012 15.3347 78.9758 15.36C78.9252 15.4107 78.6212 15.436 78.0638 15.436H77.2278L77.1138 15.322C77.0378 15.246 76.9998 15.1447 76.9998 15.018C77.0505 14.6127 77.2658 13.9793 77.6458 13.118C77.9498 12.4593 78.2665 11.9147 78.5958 11.484C78.9252 11.028 79.3432 10.572 79.8498 10.116C80.4072 9.68533 81.0025 9.40667 81.6358 9.28Z" fill="#4B9CD3"/>
</svg>
