<svg width="74" height="23" viewBox="0 0 74 23" fill="none" xmlns="http://www.w3.org/2000/svg">
<path d="M5.915 0.24L6.011 0.143999H6.491C8.68833 0.250666 11.4083 0.261332 14.651 0.175999C15.419 0.154666 15.8457 0.218665 15.931 0.367998C15.9523 0.431999 15.9203 0.677332 15.835 1.104C15.707 1.53067 15.6217 1.776 15.579 1.84L15.483 1.936H14.203C12.8163 1.95733 12.027 2.05333 11.835 2.224C11.771 2.26667 11.003 5.25333 9.531 11.184C8.059 17.072 7.323 20.048 7.323 20.112C7.323 20.1547 7.387 20.176 7.515 20.176H10.907C12.0377 20.048 13.051 19.664 13.947 19.024C14.4377 18.6827 14.8323 18.2987 15.131 17.872C15.7923 16.9973 16.4217 15.6747 17.019 13.904C17.2323 13.3493 17.371 13.0507 17.435 13.008C17.499 12.9653 17.7443 12.944 18.171 12.944C18.5977 12.944 18.8323 12.9653 18.875 13.008C19.003 13.0507 19.067 13.1467 19.067 13.296L16.123 21.84C16.0803 21.9253 15.771 21.968 15.195 21.968C14.5763 21.9893 12.283 22 8.315 22H0.731L0.603 21.904C0.539 21.7973 0.507 21.712 0.507 21.648C0.507 21.3067 0.613667 20.8907 0.827 20.4C1.083 20.272 1.48833 20.208 2.043 20.208C3.003 20.1867 3.547 20.144 3.675 20.08C3.78167 20.016 3.867 19.888 3.931 19.696C4.08033 19.2693 4.81633 16.3893 6.139 11.056C7.611 5.168 8.347 2.20267 8.347 2.16C8.347 2.096 8.32567 2.064 8.283 2.064C8.155 2.02133 7.65367 1.97867 6.779 1.936C6.03233 1.936 5.61633 1.86133 5.531 1.712C5.50967 1.648 5.54167 1.40267 5.627 0.976C5.73367 0.570665 5.82967 0.325332 5.915 0.24ZM25.0815 7.92C25.2308 7.87733 25.4655 7.856 25.7855 7.856C26.2762 7.87733 26.7028 7.984 27.0655 8.176C27.3428 8.32533 27.5562 8.48533 27.7055 8.656C27.8762 8.80533 28.0362 9.01867 28.1855 9.296C28.3775 9.70133 28.4628 10.128 28.4415 10.576C28.4415 11.0027 28.3028 11.5893 28.0255 12.336C28.0042 12.4427 27.9615 12.5707 27.8975 12.72C26.8522 15.6213 26.3295 17.6053 26.3295 18.672C26.3295 18.7573 26.3295 18.832 26.3295 18.896C26.3508 19.6213 26.5215 20.1547 26.8415 20.496C27.0762 20.7093 27.3962 20.816 27.8015 20.816C28.2282 20.816 28.6015 20.7307 28.9215 20.56C29.4762 20.2827 29.9562 19.8347 30.3615 19.216L30.5535 18.896L31.7375 14.16C32.5695 10.8533 33.0495 9.104 33.1775 8.912C33.1988 8.86933 33.2522 8.80533 33.3375 8.72C33.8068 8.25067 34.3402 8.09067 34.9375 8.24C35.4495 8.41067 35.7268 8.74133 35.7695 9.232C35.7695 9.40267 35.3855 11.0453 34.6175 14.16C33.8708 17.0827 33.4548 18.768 33.3695 19.216C33.2842 19.8133 33.2735 20.2293 33.3375 20.464C33.3802 20.5493 33.4335 20.6347 33.4975 20.72C33.5615 20.7627 33.6682 20.8053 33.8175 20.848C33.9455 20.848 34.0522 20.816 34.1375 20.752C34.5855 20.4747 35.0122 19.4933 35.4175 17.808C35.5455 17.3813 35.6522 17.1573 35.7375 17.136C35.8015 17.1147 36.0362 17.104 36.4415 17.104C36.9108 17.104 37.1775 17.1253 37.2415 17.168C37.2842 17.2107 37.3055 17.296 37.3055 17.424C37.3055 17.7227 37.1348 18.3307 36.7935 19.248C36.5375 19.952 36.2708 20.496 35.9935 20.88C35.3962 21.7973 34.6495 22.288 33.7535 22.352C32.6655 22.3947 31.8015 22.0213 31.1615 21.232L30.9375 20.944C30.8948 20.88 30.8735 20.8373 30.8735 20.816L30.6495 21.04C29.8602 21.7653 28.9962 22.192 28.0575 22.32C27.1402 22.4267 26.3082 22.3093 25.5615 21.968C24.5162 21.52 23.8655 20.6773 23.6095 19.44C23.5242 18.8853 23.5242 18.224 23.6095 17.456C23.6308 17.392 23.6415 17.3387 23.6415 17.296C23.8122 16.2293 24.3135 14.5973 25.1455 12.4C25.5295 11.2693 25.7428 10.544 25.7855 10.224C25.8922 9.73333 25.8388 9.456 25.6255 9.392C25.3695 9.30667 25.0708 9.36 24.7295 9.552C24.2815 9.82933 23.9295 10.2667 23.6735 10.864C23.4602 11.248 23.2255 11.8987 22.9695 12.816C22.9055 12.944 22.8628 13.0187 22.8415 13.04C22.7988 13.0827 22.5428 13.104 22.0735 13.104H21.3695L21.2735 13.008C21.2095 12.944 21.1775 12.8587 21.1775 12.752C21.2202 12.4107 21.4015 11.8773 21.7215 11.152C21.9775 10.5973 22.2442 10.1387 22.5215 9.776C22.7988 9.392 23.1508 9.008 23.5775 8.624C24.0468 8.26133 24.5482 8.02667 25.0815 7.92ZM41.565 7.92C41.9277 7.81333 42.3863 7.824 42.941 7.952C43.5383 8.12267 44.0077 8.4 44.349 8.784C44.5837 9.01867 44.7863 9.33867 44.957 9.744L45.021 9.872L45.277 9.616C46.1303 8.80533 47.037 8.272 47.997 8.016C49.2343 7.696 50.3543 7.77067 51.357 8.24C51.7197 8.41067 52.0397 8.63467 52.317 8.912C52.509 9.12533 52.6477 9.33867 52.733 9.552L52.957 10.032V10.128L53.277 9.808C54.2583 8.76267 55.3677 8.144 56.605 7.952C57.373 7.80267 58.077 7.81333 58.717 7.984C59.549 8.15467 60.1783 8.51733 60.605 9.072C60.8397 9.37067 61.0317 9.76533 61.181 10.256C61.2237 10.448 61.245 10.8 61.245 11.312C61.245 11.8667 61.2343 12.2187 61.213 12.368C60.9783 13.6267 60.4023 15.5147 59.485 18.032C59.037 19.2693 58.8237 20.08 58.845 20.464C58.8663 20.6987 58.9837 20.8267 59.197 20.848C59.709 20.8907 60.1783 20.6133 60.605 20.016C61.0317 19.4187 61.373 18.64 61.629 17.68C61.7357 17.3387 61.8423 17.1573 61.949 17.136C62.013 17.1147 62.237 17.104 62.621 17.104C63.0903 17.104 63.3463 17.1253 63.389 17.168C63.517 17.2533 63.517 17.4773 63.389 17.84C62.9837 19.2693 62.3437 20.4 61.469 21.232C61.1917 21.5093 60.8503 21.7653 60.445 22C59.5063 22.4693 58.589 22.4907 57.693 22.064C57.309 21.872 57.021 21.648 56.829 21.392C56.4237 20.9013 56.221 20.3253 56.221 19.664C56.221 19.2587 56.381 18.5973 56.701 17.68C57.7463 14.864 58.333 12.8693 58.461 11.696C58.5463 11.184 58.5357 10.704 58.429 10.256C58.2797 9.82933 58.0663 9.56267 57.789 9.456C57.5757 9.34933 57.245 9.328 56.797 9.392C55.389 9.60533 54.173 10.672 53.149 12.592L52.893 13.04L51.869 17.104C51.1863 19.856 50.813 21.2853 50.749 21.392C50.4717 21.9467 50.013 22.2667 49.373 22.352C49.2023 22.3733 49.0423 22.3627 48.893 22.32C48.3597 22.1707 48.0717 21.84 48.029 21.328C48.029 21.1573 48.3703 19.6853 49.053 16.912C49.7783 14.0107 50.1517 12.496 50.173 12.368C50.2797 11.856 50.333 11.376 50.333 10.928C50.3117 10.352 50.173 9.936 49.917 9.68C49.853 9.57333 49.757 9.49867 49.629 9.456C49.5437 9.41333 49.3623 9.392 49.085 9.392C48.7223 9.392 48.381 9.44533 48.061 9.552C47.4637 9.744 46.909 10.096 46.397 10.608C45.885 11.12 45.3943 11.8027 44.925 12.656L44.701 13.04L43.709 17.104C42.9837 19.9627 42.557 21.4773 42.429 21.648C42.4077 21.6907 42.3543 21.7547 42.269 21.84C41.821 22.288 41.2983 22.448 40.701 22.32C40.1677 22.1707 39.8797 21.84 39.837 21.328C39.837 21.136 40.2423 19.408 41.053 16.144C41.885 12.9227 42.3223 11.1627 42.365 10.864C42.429 10.3093 42.4077 9.904 42.301 9.648C42.1943 9.456 42.045 9.36 41.853 9.36C41.725 9.36 41.6077 9.40267 41.501 9.488C41.3303 9.59467 41.149 9.84 40.957 10.224C40.7437 10.736 40.477 11.6 40.157 12.816C40.093 12.944 40.0503 13.0187 40.029 13.04C39.9863 13.0827 39.7303 13.104 39.261 13.104H38.557L38.461 13.008C38.3757 12.9227 38.3863 12.6667 38.493 12.24C39.0477 10.2347 39.7517 8.93333 40.605 8.336C41.0103 8.08 41.3303 7.94133 41.565 7.92ZM71.2085 1.072C71.9765 0.879999 72.5312 1.072 72.8725 1.648C72.9792 1.84 73.0432 2.05333 73.0645 2.288C73.0645 2.608 72.9898 2.91733 72.8405 3.216C72.3498 3.89867 71.7312 4.29333 70.9845 4.4C70.7498 4.4 70.5045 4.336 70.2485 4.208C70.0352 4.10133 69.8645 3.90933 69.7365 3.632C69.6725 3.54667 69.6298 3.376 69.6085 3.12C69.6085 2.77867 69.6725 2.48 69.8005 2.224C70.0992 1.62667 70.5685 1.24267 71.2085 1.072ZM68.4565 7.92C68.6058 7.87733 68.8405 7.856 69.1605 7.856C69.6512 7.87733 70.0778 7.984 70.4405 8.176C70.7178 8.32533 70.9312 8.48533 71.0805 8.656C71.2512 8.80533 71.4112 9.01867 71.5605 9.296C71.7525 9.70133 71.8378 10.128 71.8165 10.576C71.8165 10.9387 71.7952 11.1947 71.7525 11.344C71.7312 11.3867 71.2512 12.72 70.3125 15.344C69.4165 17.7333 68.9365 19.056 68.8725 19.312C68.6592 20.016 68.6272 20.4853 68.7765 20.72C68.8832 20.848 69.1072 20.8693 69.4485 20.784C70.2805 20.592 70.9525 19.5573 71.4645 17.68C71.5712 17.3387 71.6778 17.1573 71.7845 17.136C71.8485 17.1147 72.0725 17.104 72.4565 17.104C72.9258 17.104 73.1818 17.1253 73.2245 17.168C73.3525 17.2533 73.3525 17.4773 73.2245 17.84C72.9898 18.672 72.6378 19.4507 72.1685 20.176C71.3152 21.456 70.3445 22.1707 69.2565 22.32C68.8725 22.4053 68.4778 22.384 68.0725 22.256C67.6458 22.128 67.2938 21.968 67.0165 21.776C66.5472 21.392 66.2378 20.848 66.0885 20.144C66.0032 19.7387 66.0245 19.312 66.1525 18.864C66.1952 18.6933 66.6645 17.3813 67.5605 14.928C68.3285 12.88 68.8192 11.536 69.0325 10.896C69.2458 10.2347 69.2778 9.776 69.1285 9.52C69.0645 9.34933 68.8405 9.31733 68.4565 9.424C67.8165 9.57333 67.2512 10.2453 66.7605 11.44C66.4832 12.4 66.3445 12.8587 66.3445 12.816C66.2805 12.944 66.2378 13.0187 66.2165 13.04C66.1738 13.0827 65.9178 13.104 65.4485 13.104H64.7445L64.6485 13.008C64.5845 12.944 64.5525 12.8587 64.5525 12.752C64.5952 12.4107 64.7765 11.8773 65.0965 11.152C65.3525 10.5973 65.6192 10.1387 65.8965 9.776C66.1738 9.392 66.5258 9.008 66.9525 8.624C67.4218 8.26133 67.9232 8.02667 68.4565 7.92Z" fill="#4B9CD3"/>
</svg>
